<svg width="130" height="31" viewBox="0 0 130 31" fill="none" xmlns="http://www.w3.org/2000/svg">
<g clip-path="url(#clip0_18_342)">
<path d="M0.674316 23V22.2933L1.31675 22.1006C1.72363 21.9721 2.00202 21.7687 2.15192 21.4903C2.30182 21.1905 2.37678 20.805 2.37678 20.3339V4.4336C2.37678 4.00531 2.32324 3.66268 2.21617 3.40571C2.10909 3.12732 1.84141 2.91317 1.41312 2.76327L0.674316 2.47417V1.76749H6.80959L12.8485 17.475L18.5341 1.76749H24.7979V2.47417L24.2839 2.63478C23.877 2.76327 23.5986 2.96671 23.4487 3.2451C23.2988 3.50207 23.2239 3.8447 23.2239 4.273C23.2025 5.51504 23.1918 6.75708 23.1918 7.99913C23.1918 9.21976 23.1918 10.4618 23.1918 11.7252V13.0422C23.1918 14.2843 23.1918 15.5263 23.1918 16.7684C23.1918 18.0104 23.2025 19.2417 23.2239 20.4624C23.2239 20.9121 23.2774 21.2547 23.3845 21.4903C23.4916 21.7258 23.7485 21.9186 24.1554 22.0685L24.7979 22.2933V23H16.9922V22.2933L17.6989 22.0685C18.1058 21.9186 18.3521 21.7258 18.4377 21.4903C18.5448 21.2333 18.5983 20.8907 18.5983 20.4624V13.4919L18.6626 4.88331L12.1097 23H10.3109L3.40467 5.07604L3.53316 12.3998V20.366C3.53316 20.8371 3.5974 21.2119 3.72589 21.4903C3.85438 21.7687 4.12206 21.9614 4.52894 22.0685L5.17137 22.2933V23H0.674316ZM33.263 23.4497C31.8068 23.4497 30.4898 23.1392 29.312 22.5182C28.1342 21.8757 27.2026 20.9549 26.5174 19.7557C25.8535 18.5351 25.5216 17.0575 25.5216 15.3229C25.5216 13.5883 25.8964 12.1107 26.6459 10.8901C27.3954 9.66946 28.3911 8.73793 29.6332 8.09549C30.8966 7.43164 32.2779 7.09971 33.7769 7.09971C34.9975 7.09971 36.0361 7.30315 36.8927 7.71003C37.7493 8.11691 38.4024 8.64156 38.8522 9.284C39.3019 9.90502 39.5267 10.5689 39.5267 11.2755C39.5267 11.8751 39.3447 12.3356 38.9806 12.6568C38.638 12.978 38.1883 13.1386 37.6315 13.1386C37.0319 13.1386 36.5394 12.9245 36.1539 12.4962C35.7899 12.0679 35.5757 11.5218 35.5115 10.8579C35.4901 10.4297 35.4901 10.0656 35.5115 9.76583C35.5543 9.46602 35.5543 9.17693 35.5115 8.89854C35.4258 8.53449 35.2759 8.28822 35.0618 8.15974C34.869 8.03125 34.5907 7.967 34.2266 7.967C32.8775 7.967 31.8389 8.51308 31.1108 9.60522C30.4041 10.6759 30.0508 12.4212 30.0508 14.8411C30.0508 16.9183 30.4469 18.5137 31.2393 19.6272C32.0316 20.7408 33.263 21.2975 34.9333 21.2975C35.9184 21.2975 36.7321 21.1155 37.3746 20.7515C38.017 20.366 38.6059 19.8199 39.1413 19.1133L39.6552 19.4987C39.1198 20.7836 38.2954 21.7687 37.1818 22.4539C36.0897 23.1178 34.7834 23.4497 33.263 23.4497ZM40.6086 23V22.3254L41.2831 22.1327C41.7114 22.0042 41.9898 21.8115 42.1183 21.5545C42.2468 21.2975 42.311 20.9549 42.311 20.5266V4.273C42.311 3.82329 42.2361 3.48066 42.0862 3.2451C41.9577 2.98812 41.6793 2.79539 41.251 2.6669L40.6086 2.44205V1.76749H48.4142V2.44205L47.7396 2.6669C47.3327 2.77398 47.0651 2.956 46.9366 3.21297C46.8081 3.46995 46.7438 3.82329 46.7438 4.273V20.5587C46.7438 20.987 46.8188 21.3297 46.9687 21.5866C47.1186 21.8222 47.397 22.0042 47.8039 22.1327L48.4142 22.3254V23H40.6086ZM52.3009 23V22.3254L52.6864 22.2291C53.0933 22.122 53.3074 21.9186 53.3288 21.6188C53.3502 21.319 53.211 20.9763 52.9112 20.5909L46.776 12.0786L54.6137 4.11239C54.9349 3.79117 55.1062 3.50207 55.1276 3.2451C55.1705 2.96671 54.9777 2.75256 54.5494 2.60266L54.0034 2.44205V1.76749H59.0786V2.44205L58.2435 2.6669C57.7509 2.8168 57.3547 2.99883 57.0549 3.21297C56.7551 3.4057 56.4125 3.70551 56.027 4.11239L50.3094 9.92644L57.6653 20.4303C58.0079 20.9014 58.3291 21.2761 58.6289 21.5545C58.9501 21.8329 59.3784 22.0471 59.9138 22.197L60.3635 22.3254V23H52.3009ZM65.0994 5.33302C64.3928 5.33302 63.7932 5.10816 63.3006 4.65846C62.8081 4.20875 62.5618 3.64127 62.5618 2.956C62.5618 2.24932 62.8081 1.68183 63.3006 1.25354C63.7932 0.80384 64.3928 0.578988 65.0994 0.578988C65.8061 0.578988 66.4057 0.80384 66.8983 1.25354C67.3908 1.68183 67.6371 2.24932 67.6371 2.956C67.6371 3.64127 67.3908 4.20875 66.8983 4.65846C66.4057 5.10816 65.8061 5.33302 65.0994 5.33302ZM61.4054 23V22.3897L61.8873 22.2612C62.3156 22.1327 62.6047 21.94 62.7546 21.683C62.9045 21.426 62.9901 21.0834 63.0115 20.6551V14.7447C63.0115 14.0808 63.0115 13.4705 63.0115 12.9137C63.0115 12.3356 63.0008 11.7467 62.9794 11.147C62.9794 10.7188 62.8938 10.3868 62.7224 10.1513C62.5725 9.89431 62.2834 9.723 61.8551 9.63734L61.4054 9.54097V8.96278L67.0268 7.09971L67.4122 7.45306L67.3159 12.0143V20.6872C67.3159 21.1155 67.3908 21.4582 67.5407 21.7151C67.712 21.9721 68.0011 22.1648 68.408 22.2933L68.7613 22.3897V23H61.4054ZM70.188 23V22.3897L70.7019 22.2612C71.4086 22.0471 71.762 21.5224 71.762 20.6872V11.2113C71.7406 10.7616 71.6656 10.419 71.5371 10.1834C71.4086 9.92644 71.1302 9.75512 70.7019 9.66946L70.188 9.54097V8.96278L75.3917 7.09971L75.7772 7.45306L76.0021 9.44461C76.773 8.75934 77.6296 8.20256 78.5718 7.77427C79.5355 7.32457 80.4777 7.09971 81.3985 7.09971C82.8119 7.09971 83.8933 7.48518 84.6428 8.2561C85.4137 9.02703 85.7992 10.2048 85.7992 11.7895V20.7194C85.7992 21.5545 86.1847 22.0792 86.9556 22.2933L87.3089 22.3897V23H79.9209V22.3897L80.4027 22.2612C81.1094 22.0256 81.4628 21.501 81.4628 20.6872V11.147C81.4628 10.3975 81.3022 9.85149 80.9809 9.50885C80.6597 9.16622 80.1244 8.9949 79.3748 8.9949C78.3255 8.9949 77.2334 9.45532 76.0984 10.3761V20.7194C76.0984 21.5545 76.4732 22.0792 77.2227 22.2933L77.5439 22.3897V23H70.188ZM88.6972 23V22.3897L89.179 22.2612C89.8857 22.0256 90.239 21.4903 90.239 20.6551C90.239 19.927 90.239 19.1989 90.239 18.4708C90.2605 17.7213 90.2712 16.9825 90.2712 16.2544V4.04814C90.2712 3.59844 90.1962 3.26651 90.0463 3.05236C89.8964 2.8168 89.6073 2.64549 89.179 2.53842L88.6972 2.40993V1.79961L94.3185 0.4505L94.7361 0.739597L94.6076 5.26877V20.6551C94.629 21.0834 94.7147 21.4367 94.8646 21.7151C95.0359 21.9721 95.325 22.1541 95.7319 22.2612L96.1816 22.3897V23H88.6972ZM105.667 7.09971C107.016 7.09971 108.172 7.3781 109.136 7.93488C110.099 8.49166 110.838 9.26259 111.352 10.2476C111.887 11.2113 112.155 12.3248 112.155 13.5883C112.155 13.8667 112.144 14.1344 112.123 14.3914C112.102 14.6269 112.059 14.8518 111.995 15.0659H102.326C102.347 17.2716 102.754 18.8563 103.546 19.8199C104.36 20.7836 105.538 21.2654 107.08 21.2654C108.151 21.2654 109.018 21.0941 109.682 20.7515C110.346 20.3874 110.956 19.8842 111.513 19.2417L112.027 19.7236C111.384 20.9014 110.506 21.8222 109.393 22.4861C108.3 23.1285 106.994 23.4497 105.474 23.4497C103.953 23.4497 102.615 23.1285 101.459 22.4861C100.302 21.8436 99.3918 20.9228 98.728 19.7236C98.0856 18.5029 97.7643 17.0468 97.7643 15.355C97.7643 13.599 98.1391 12.1107 98.8886 10.8901C99.6595 9.66946 100.645 8.73793 101.844 8.09549C103.065 7.43164 104.339 7.09971 105.667 7.09971ZM105.506 8.03125C104.885 8.03125 104.339 8.21327 103.868 8.57732C103.418 8.91995 103.054 9.54097 102.776 10.4404C102.519 11.3184 102.369 12.5604 102.326 14.1665H108.076C108.311 12.0036 108.226 10.4404 107.819 9.47673C107.412 8.51308 106.641 8.03125 105.506 8.03125ZM116.461 30.7414C115.604 30.7414 114.93 30.5379 114.437 30.131C113.945 29.7242 113.698 29.1888 113.698 28.525C113.698 27.9253 113.902 27.4435 114.309 27.0795C114.737 26.7368 115.208 26.5655 115.722 26.5655C116.258 26.5655 116.697 26.6619 117.039 26.8546C117.382 27.0474 117.682 27.3257 117.939 27.6898L118.131 27.9468C118.624 28.5464 119.084 28.5357 119.513 27.9146C119.791 27.5506 120.059 27.1009 120.316 26.5655C120.594 26.0302 120.894 25.3235 121.215 24.4455L115.112 9.86219C114.962 9.45532 114.791 9.1448 114.598 8.93066C114.405 8.6951 114.116 8.50237 113.731 8.35247L113.185 8.15974V7.58154H121.119V8.15974L120.444 8.35247C119.973 8.50237 119.716 8.73793 119.673 9.05915C119.652 9.35895 119.727 9.75512 119.898 10.2476L123.174 18.792L126.322 10.1834C126.494 9.71229 126.558 9.31612 126.515 8.9949C126.472 8.67368 126.205 8.45954 125.712 8.35247L125.005 8.15974V7.58154H129.792V8.15974L129.085 8.38459C128.614 8.51308 128.271 8.70581 128.057 8.96278C127.864 9.19834 127.682 9.55168 127.511 10.0228L122.371 23.8352C121.515 26.1908 120.637 27.9253 119.737 29.0389C118.859 30.1739 117.767 30.7414 116.461 30.7414Z" fill="#00486D"/>
</g>
<defs>
<clipPath id="clip0_18_342">
<rect width="130" height="31" fill="white"/>
</clipPath>
</defs>
</svg>
