<svg width="64" height="64" viewBox="0 0 64 64" fill="none" xmlns="http://www.w3.org/2000/svg">
<g clip-path="url(#clip0_18_133)">
<path d="M28.42 2.99994C14.845 2.99994 3.39 12.2399 0 24.7599H2.67C3.63 21.5549 5.185 18.6149 7.18 16.0349C9.365 17.2649 11.895 18.2949 14.695 19.0849C14.225 20.8799 13.84 22.7699 13.57 24.7599H16.18C16.44 22.9999 16.795 21.3199 17.215 19.7199C20.3 20.3999 23.635 20.8049 27.14 20.8799V24.7599H29.7V20.8799C33.205 20.8049 36.54 20.4049 39.625 19.7199C40.045 21.3199 40.4 22.9999 40.66 24.7599H43.27C43 22.7699 42.615 20.8799 42.145 19.0849C44.945 18.2949 47.475 17.2649 49.66 16.0349C51.655 18.6149 53.21 21.5549 54.165 24.7599H56.84C53.45 12.2399 41.995 2.99994 28.42 2.99994ZM27.14 5.71494V18.3199C23.885 18.2449 20.79 17.8699 17.94 17.2499C20.045 10.9549 23.38 6.54494 27.14 5.71494ZM29.7 5.71494C33.46 6.54494 36.795 10.9549 38.9 17.2499C36.05 17.8699 32.955 18.2449 29.7 18.3199V5.71494ZM20.91 6.64994C18.655 9.02994 16.77 12.4599 15.41 16.6199C12.965 15.9299 10.755 15.0549 8.865 14.0399C12.105 10.5949 16.25 8.01494 20.91 6.64994ZM35.93 6.64994C40.59 8.01494 44.735 10.5949 47.975 14.0399C46.085 15.0549 43.875 15.9299 41.43 16.6199C40.07 12.4599 38.185 9.02994 35.93 6.64994ZM0.26 27.3199L3.51 37.5599H6.49L9.2 29.9049L11.91 37.5599H14.825L18.135 27.3199H15.365L13.275 34.4749L10.885 27.3199H7.62L5.13 34.3549L3.075 27.3199H0.26ZM19.48 27.3199L22.735 37.5599H25.72L28.42 29.9049L31.135 37.5599H34.05L37.36 27.3199H34.585L32.5 34.4749L30.11 27.3199H26.84L24.35 34.3549L22.3 27.3199H19.48ZM38.64 27.3199L41.9 37.5599H44.895L47.61 29.9049L50.335 37.5599H53.26L56.58 27.3199H53.8L51.7 34.4749L49.305 27.3199H46.025L43.525 34.3549L41.46 27.3199H38.64ZM47.62 38.8399C40.58 38.8399 34.82 44.5999 34.82 51.6399C34.82 58.6799 40.58 64.4399 47.62 64.4399C54.66 64.4399 60.42 58.6799 60.42 51.6399C60.42 44.5999 54.66 38.8399 47.62 38.8399ZM0 40.1199C3.39 52.6399 14.845 61.8799 28.42 61.8799C30.855 61.8799 33.215 61.5699 35.48 61.0149C35.05 60.4599 34.67 59.8649 34.32 59.2599C33.935 58.5949 33.595 57.9049 33.315 57.1849C32.175 58.2099 30.96 58.8949 29.7 59.1799V46.5549C30.835 46.5899 31.965 46.6499 33.075 46.7449C33.365 45.8899 33.715 45.0549 34.145 44.2749C32.69 44.1199 31.2 44.0349 29.7 43.9999V40.1199H27.14V43.9999C23.685 44.0799 20.34 44.4749 17.22 45.1649C16.795 43.5649 16.44 41.8849 16.18 40.1199H13.57C13.84 42.1149 14.23 44.0049 14.695 45.7999C11.92 46.5849 9.38 47.6049 7.18 48.8449C5.185 46.2649 3.63 43.3249 2.67 40.1199H0ZM47.62 41.3999C53.25 41.3999 57.86 46.0099 57.86 51.6399C57.86 57.2699 53.25 61.8799 47.62 61.8799C41.99 61.8799 37.38 57.2699 37.38 51.6399C37.38 46.0099 41.99 41.3999 47.62 41.3999ZM47.62 45.2399C44.805 45.2399 43.78 47.5449 43.78 49.0799H46.34C46.34 48.4399 46.595 47.7999 47.62 47.7999C48.26 47.7999 48.9 48.0549 48.9 49.0799C48.9 49.2099 48.515 49.7199 48.26 49.9749C47.49 50.8699 46.34 52.2799 46.34 54.1999H48.9C48.9 53.1749 49.54 52.4099 50.18 51.6399C50.82 50.8699 51.46 50.1049 51.46 49.0799C51.46 46.2649 49.155 45.2399 47.62 45.2399ZM27.14 46.5599V59.1649C23.38 58.3349 20.04 53.9249 17.94 47.6199C20.83 46.9999 23.93 46.6349 27.14 46.5599ZM15.41 48.2499C16.77 52.4149 18.655 55.8499 20.91 58.2249C16.25 56.8649 12.105 54.2849 8.86 50.8349C10.795 49.7949 13.005 48.9299 15.41 48.2499ZM46.34 55.4799V58.0399H48.9V55.4799H46.34Z" fill="#00486D"/>
</g>
<defs>
<clipPath id="clip0_18_133">
<rect width="64" height="64" fill="white"/>
</clipPath>
</defs>
</svg>
