<svg width="130" height="31" viewBox="0 0 130 31" fill="none" xmlns="http://www.w3.org/2000/svg">
<path d="M0.674316 23V22.2933L1.31675 22.1006C1.72363 21.9721 2.00202 21.7687 2.15192 21.4903C2.30182 21.1905 2.37678 20.805 2.37678 20.3339V4.43354C2.37678 4.00525 2.32324 3.66262 2.21617 3.40565C2.10909 3.12726 1.84141 2.91311 1.41312 2.76321L0.674316 2.47411V1.76743H6.80959L12.8485 17.475L18.5341 1.76743H24.7979V2.47411L24.2839 2.63472C23.877 2.76321 23.5986 2.96665 23.4487 3.24504C23.2988 3.50201 23.2239 3.84464 23.2239 4.27294C23.2025 5.51498 23.1918 6.75702 23.1918 7.99907C23.1918 9.2197 23.1918 10.4618 23.1918 11.7252V13.0422C23.1918 14.2843 23.1918 15.5263 23.1918 16.7684C23.1918 18.0104 23.2025 19.2417 23.2239 20.4624C23.2239 20.9121 23.2774 21.2547 23.3845 21.4903C23.4916 21.7258 23.7485 21.9186 24.1554 22.0685L24.7979 22.2933V23H16.9922V22.2933L17.6989 22.0685C18.1058 21.9186 18.3521 21.7258 18.4377 21.4903C18.5448 21.2333 18.5983 20.8907 18.5983 20.4624V13.4919L18.6626 4.88325L12.1097 23H10.3109L3.40467 5.07598L3.53316 12.3998V20.366C3.53316 20.8371 3.5974 21.2119 3.72589 21.4903C3.85438 21.7687 4.12206 21.9614 4.52894 22.0685L5.17137 22.2933V23H0.674316ZM33.263 23.4497C31.8068 23.4497 30.4898 23.1392 29.312 22.5182C28.1342 21.8757 27.2026 20.9549 26.5174 19.7557C25.8535 18.5351 25.5216 17.0575 25.5216 15.3229C25.5216 13.5883 25.8964 12.1107 26.6459 10.8901C27.3954 9.6694 28.3911 8.73787 29.6332 8.09543C30.8966 7.43158 32.2779 7.09965 33.7769 7.09965C34.9975 7.09965 36.0361 7.30309 36.8927 7.70997C37.7493 8.11685 38.4024 8.6415 38.8522 9.28394C39.3019 9.90496 39.5267 10.5689 39.5267 11.2755C39.5267 11.8751 39.3447 12.3356 38.9806 12.6568C38.638 12.978 38.1883 13.1386 37.6315 13.1386C37.0319 13.1386 36.5394 12.9245 36.1539 12.4962C35.7899 12.0679 35.5757 11.5218 35.5115 10.8579C35.4901 10.4297 35.4901 10.0656 35.5115 9.76577C35.5543 9.46596 35.5543 9.17687 35.5115 8.89848C35.4258 8.53443 35.2759 8.28816 35.0618 8.15968C34.869 8.03119 34.5907 7.96694 34.2266 7.96694C32.8775 7.96694 31.8389 8.51302 31.1108 9.60516C30.4041 10.6759 30.0508 12.4212 30.0508 14.8411C30.0508 16.9183 30.4469 18.5137 31.2393 19.6272C32.0316 20.7408 33.263 21.2975 34.9333 21.2975C35.9184 21.2975 36.7321 21.1155 37.3746 20.7515C38.017 20.366 38.6059 19.8199 39.1413 19.1133L39.6552 19.4987C39.1198 20.7836 38.2954 21.7687 37.1818 22.4539C36.0897 23.1178 34.7834 23.4497 33.263 23.4497ZM40.6086 23V22.3254L41.2831 22.1327C41.7114 22.0042 41.9898 21.8115 42.1183 21.5545C42.2468 21.2975 42.311 20.9549 42.311 20.5266V4.27294C42.311 3.82323 42.2361 3.4806 42.0862 3.24504C41.9577 2.98806 41.6793 2.79533 41.251 2.66684L40.6086 2.44199V1.76743H48.4142V2.44199L47.7396 2.66684C47.3327 2.77392 47.0651 2.95594 46.9366 3.21291C46.8081 3.46989 46.7438 3.82323 46.7438 4.27294V20.5587C46.7438 20.987 46.8188 21.3297 46.9687 21.5866C47.1186 21.8222 47.397 22.0042 47.8039 22.1327L48.4142 22.3254V23H40.6086ZM52.3009 23V22.3254L52.6864 22.2291C53.0933 22.122 53.3074 21.9186 53.3288 21.6188C53.3502 21.319 53.211 20.9763 52.9112 20.5909L46.776 12.0786L54.6137 4.11233C54.9349 3.79111 55.1062 3.50201 55.1276 3.24504C55.1705 2.96665 54.9777 2.7525 54.5494 2.6026L54.0034 2.44199V1.76743H59.0786V2.44199L58.2435 2.66684C57.7509 2.81674 57.3547 2.99877 57.0549 3.21291C56.7551 3.40564 56.4125 3.70545 56.027 4.11233L50.3094 9.92638L57.6653 20.4303C58.0079 20.9014 58.3291 21.2761 58.6289 21.5545C58.9501 21.8329 59.3784 22.0471 59.9138 22.197L60.3635 22.3254V23H52.3009ZM65.0994 5.33296C64.3928 5.33296 63.7932 5.1081 63.3006 4.6584C62.8081 4.20869 62.5618 3.64121 62.5618 2.95594C62.5618 2.24926 62.8081 1.68177 63.3006 1.25348C63.7932 0.803779 64.3928 0.578927 65.0994 0.578927C65.8061 0.578927 66.4057 0.803779 66.8983 1.25348C67.3908 1.68177 67.6371 2.24926 67.6371 2.95594C67.6371 3.64121 67.3908 4.20869 66.8983 4.6584C66.4057 5.1081 65.8061 5.33296 65.0994 5.33296ZM61.4054 23V22.3897L61.8873 22.2612C62.3156 22.1327 62.6047 21.94 62.7546 21.683C62.9045 21.426 62.9901 21.0834 63.0115 20.6551V14.7447C63.0115 14.0808 63.0115 13.4705 63.0115 12.9137C63.0115 12.3356 63.0008 11.7467 62.9794 11.147C62.9794 10.7188 62.8938 10.3868 62.7224 10.1513C62.5725 9.89425 62.2834 9.72294 61.8551 9.63728L61.4054 9.54091V8.96272L67.0268 7.09965L67.4122 7.453L67.3159 12.0143V20.6872C67.3159 21.1155 67.3908 21.4582 67.5407 21.7151C67.712 21.9721 68.0011 22.1648 68.408 22.2933L68.7613 22.3897V23H61.4054ZM70.188 23V22.3897L70.7019 22.2612C71.4086 22.0471 71.762 21.5224 71.762 20.6872V11.2113C71.7406 10.7616 71.6656 10.419 71.5371 10.1834C71.4086 9.92638 71.1302 9.75506 70.7019 9.6694L70.188 9.54091V8.96272L75.3917 7.09965L75.7772 7.453L76.0021 9.44455C76.7729 8.75928 77.6296 8.2025 78.5718 7.77421C79.5355 7.32451 80.4777 7.09965 81.3985 7.09965C82.8119 7.09965 83.8933 7.48512 84.6428 8.25604C85.4137 9.02697 85.7992 10.2048 85.7992 11.7895V20.7194C85.7992 21.5545 86.1847 22.0792 86.9556 22.2933L87.3089 22.3897V23H79.9209V22.3897L80.4027 22.2612C81.1094 22.0256 81.4628 21.501 81.4628 20.6872V11.147C81.4628 10.3975 81.3022 9.85143 80.9809 9.50879C80.6597 9.16616 80.1244 8.99484 79.3748 8.99484C78.3255 8.99484 77.2334 9.45526 76.0984 10.3761V20.7194C76.0984 21.5545 76.4732 22.0792 77.2227 22.2933L77.5439 22.3897V23H70.188ZM88.6972 23V22.3897L89.179 22.2612C89.8857 22.0256 90.239 21.4903 90.239 20.6551C90.239 19.927 90.239 19.1989 90.239 18.4708C90.2605 17.7213 90.2712 16.9825 90.2712 16.2544V4.04808C90.2712 3.59838 90.1962 3.26645 90.0463 3.0523C89.8964 2.81674 89.6073 2.64543 89.179 2.53836L88.6972 2.40987V1.79955L94.3185 0.450439L94.7361 0.739536L94.6076 5.26871V20.6551C94.629 21.0834 94.7147 21.4367 94.8646 21.7151C95.0359 21.9721 95.325 22.1541 95.7319 22.2612L96.1816 22.3897V23H88.6972ZM105.667 7.09965C107.016 7.09965 108.172 7.37804 109.136 7.93482C110.099 8.4916 110.838 9.26253 111.352 10.2476C111.887 11.2113 112.155 12.3248 112.155 13.5883C112.155 13.8667 112.144 14.1344 112.123 14.3914C112.102 14.6269 112.059 14.8518 111.995 15.0659H102.326C102.347 17.2716 102.754 18.8563 103.546 19.8199C104.36 20.7836 105.538 21.2654 107.08 21.2654C108.151 21.2654 109.018 21.0941 109.682 20.7515C110.346 20.3874 110.956 19.8842 111.513 19.2417L112.027 19.7236C111.384 20.9014 110.506 21.8222 109.393 22.4861C108.3 23.1285 106.994 23.4497 105.474 23.4497C103.953 23.4497 102.615 23.1285 101.459 22.4861C100.302 21.8436 99.3918 20.9228 98.728 19.7236C98.0856 18.5029 97.7643 17.0468 97.7643 15.355C97.7643 13.599 98.1391 12.1107 98.8886 10.8901C99.6595 9.6694 100.645 8.73787 101.844 8.09543C103.065 7.43158 104.339 7.09965 105.667 7.09965ZM105.506 8.03119C104.885 8.03119 104.339 8.21321 103.868 8.57726C103.418 8.91989 103.054 9.54091 102.776 10.4404C102.519 11.3184 102.369 12.5604 102.326 14.1665H108.076C108.311 12.0036 108.226 10.4404 107.819 9.47667C107.412 8.51302 106.641 8.03119 105.506 8.03119ZM116.461 30.7414C115.604 30.7414 114.93 30.5379 114.437 30.131C113.945 29.7242 113.698 29.1888 113.698 28.525C113.698 27.9253 113.902 27.4435 114.309 27.0795C114.737 26.7368 115.208 26.5655 115.722 26.5655C116.258 26.5655 116.697 26.6619 117.039 26.8546C117.382 27.0474 117.682 27.3257 117.939 27.6898L118.131 27.9468C118.624 28.5464 119.084 28.5357 119.513 27.9146C119.791 27.5506 120.059 27.1009 120.316 26.5655C120.594 26.0302 120.894 25.3235 121.215 24.4455L115.112 9.86213C114.962 9.45526 114.791 9.14474 114.598 8.9306C114.405 8.69504 114.116 8.50231 113.731 8.35241L113.185 8.15968V7.58148H121.119V8.15968L120.444 8.35241C119.973 8.50231 119.716 8.73787 119.673 9.05909C119.652 9.35889 119.727 9.75506 119.898 10.2476L123.174 18.792L126.322 10.1834C126.494 9.71223 126.558 9.31606 126.515 8.99484C126.472 8.67362 126.205 8.45948 125.712 8.35241L125.005 8.15968V7.58148H129.792V8.15968L129.085 8.38453C128.614 8.51302 128.271 8.70575 128.057 8.96272C127.864 9.19828 127.682 9.55162 127.511 10.0228L122.371 23.8352C121.515 26.1908 120.637 27.9253 119.737 29.0389C118.859 30.1739 117.767 30.7414 116.461 30.7414Z" fill="white"/>
</svg>
